<?xml version="1.0" encoding="UTF-8"?>
<!DOCTYPE svg PUBLIC "-//W3C//DTD SVG 1.1//EN" "http://www.w3.org/Graphics/SVG/1.1/DTD/svg11.dtd"><svg version="1.1" viewBox="0 0 23368 6350" preserveAspectRatio="xMidYMid" fill-rule="evenodd" xmlns="http://www.w3.org/2000/svg" xmlns:xlink="http://www.w3.org/1999/xlink"><g visibility="visible" id="Default"><desc>Master slide</desc></g><g visibility="visible" id="page1"><desc>Slide</desc><g><desc>Drawing</desc><g><g style="stroke:none;fill:rgb(148,189,94)"><path d="M 3140,6026 L 2845,6011 2558,5967 2282,5896 2017,5799 1764,5678 1526,5533 1304,5367 1099,5181 913,4976 747,4754 602,4516 481,4263 384,3998 313,3722 269,3435 254,3140 258,2985 285,3234 336,3474 409,3706 502,3928 615,4139 746,4338 895,4523 1060,4693 1240,4848 1433,4985 1640,5105 1858,5206 2087,5286 2324,5345 2570,5381 2823,5393 3086,5380 3341,5341 3587,5277 3823,5191 4048,5083 4260,4954 4458,4806 4640,4640 4806,4458 4954,4260 5083,4048 5191,3823 5277,3587 5341,3341 5380,3086 5393,2823 5381,2570 5345,2324 5286,2087 5206,1858 5105,1640 4985,1433 4848,1240 4693,1060 4523,895 4338,746 4139,615 3928,502 3706,409 3474,336 3234,285 2985,258 3140,254 3435,269 3722,313 3998,384 4263,481 4516,602 4754,747 4976,913 5181,1099 5367,1304 5533,1526 5678,1764 5799,2017 5896,2282 5967,2558 6011,2845 6026,3140 6011,3435 5967,3722 5896,3998 5799,4263 5678,4516 5533,4754 5367,4976 5181,5181 4976,5367 4754,5533 4516,5678 4263,5799 3998,5896 3722,5967 3435,6011 3140,6026 Z"/></g><g/></g></g><g><desc>Drawing</desc><g><g style="stroke:none;fill:rgb(148,189,94)"><path d="M 4334,3148 L 4332,3087 4328,3025 4320,2964 4309,2904 4295,2844 4278,2785 4258,2726 4236,2669 4210,2613 4181,2559 4150,2506 4116,2454 4080,2405 4041,2357 4000,2312 3956,2268 3911,2227 3863,2188 3814,2152 3762,2118 3709,2087 3655,2058 3599,2032 3542,2010 3483,1990 3424,1973 3364,1959 3304,1948 3243,1940 3181,1936 3120,1934 3120,1934 3059,1936 2997,1940 2936,1948 2876,1959 2816,1973 2757,1990 2698,2010 2641,2032 2585,2058 2531,2087 2478,2118 2426,2152 2377,2188 2329,2227 2284,2268 2240,2312 2199,2357 2160,2405 2124,2454 2090,2506 2059,2559 2030,2613 2004,2669 1982,2726 1962,2785 1945,2844 1931,2904 1920,2964 1912,3025 1908,3087 1906,3148 1906,3148 1908,3209 1912,3271 1920,3332 1931,3392 1945,3452 1962,3511 1982,3570 2004,3627 2030,3683 2059,3737 2090,3790 2124,3842 2160,3891 2199,3939 2240,3984 2284,4028 2329,4069 2377,4108 2426,4144 2478,4178 2531,4209 2585,4238 2641,4264 2698,4286 2757,4306 2816,4323 2876,4337 2936,4348 2997,4356 3059,4360 3120,4362 3120,4362 3181,4360 3243,4356 3304,4348 3364,4337 3424,4323 3483,4306 3542,4286 3599,4264 3655,4238 3709,4209 3762,4178 3814,4144 3863,4108 3911,4069 3956,4028 4000,3984 4041,3939 4080,3891 4116,3842 4150,3790 4181,3737 4210,3683 4236,3627 4258,3570 4278,3511 4295,3452 4309,3392 4320,3332 4328,3271 4332,3209 4334,3148 Z"/></g><g/></g></g><g><desc>Drawing</desc><g><g style="stroke:none;fill:rgb(255,255,255)"><path d="M 3857,1755 L 5494,1755 3991,4922 3889,4922 3891,4927 2256,4927 753,1760 2390,1760 3122,3305 3857,1755 Z"/></g><g style="stroke:none;fill:rgb(115,156,62)"><path d="M 3857,1654 L 5494,1654 5494,1755 5494,1857 3857,1857 3857,1755 3857,1654 Z"/><path d="M 5494,1755 L 5494,1654 5512,1655 5529,1660 5545,1667 5559,1677 5572,1690 5582,1704 5589,1720 5594,1737 5596,1755 5594,1773 5589,1790 5586,1799 5494,1755 Z"/><path d="M 5586,1799 L 4083,4966 3991,4922 3899,4878 5402,1711 5494,1755 5586,1799 Z"/><path d="M 3991,4922 L 4083,4966 4074,4981 4062,4994 4049,5006 4033,5014 4017,5020 3999,5023 3991,5024 3991,4922 Z"/><path d="M 3991,5024 L 3889,5024 3889,4922 3889,4821 3991,4821 3991,4922 3991,5024 Z"/><path d="M 3889,4922 L 3795,4960 3790,4943 3788,4925 3789,4908 3793,4890 3800,4874 3809,4859 3821,4846 3836,4836 3851,4828 3868,4823 3886,4821 3889,4821 3889,4922 Z"/><path d="M 3983,4884 L 3985,4889 3891,4927 3797,4965 3795,4960 3889,4922 3983,4884 Z"/><path d="M 3891,4927 L 3985,4889 3990,4906 3992,4924 3991,4941 3987,4959 3980,4975 3971,4990 3959,5003 3944,5013 3929,5021 3912,5026 3894,5028 3891,5029 3891,4927 Z"/><path d="M 3891,5029 L 2256,5029 2256,4927 2256,4826 3891,4826 3891,4927 3891,5029 Z"/><path d="M 2256,4927 L 2256,5029 2238,5027 2221,5022 2205,5015 2191,5005 2178,4992 2168,4978 2164,4971 2256,4927 Z"/><path d="M 2164,4971 L 661,1804 753,1760 845,1716 2348,4883 2256,4927 2164,4971 Z"/><path d="M 753,1760 L 661,1804 655,1787 652,1770 652,1752 655,1734 661,1718 669,1702 681,1689 694,1677 709,1668 726,1662 743,1659 753,1659 753,1760 Z"/><path d="M 753,1659 L 2390,1659 2390,1760 2390,1862 753,1862 753,1760 753,1659 Z"/><path d="M 2390,1760 L 2390,1659 2408,1660 2425,1665 2441,1672 2455,1682 2468,1695 2478,1709 2482,1717 2390,1760 Z"/><path d="M 2482,1717 L 3214,3262 3122,3305 3030,3348 2298,1803 2390,1760 2482,1717 Z"/><path d="M 3122,3305 L 3214,3348 3205,3364 3193,3377 3180,3389 3164,3397 3148,3403 3130,3406 3113,3406 3095,3403 3079,3397 3063,3388 3050,3376 3038,3363 3030,3348 3122,3305 Z"/><path d="M 3030,3262 L 3765,1712 3857,1755 3949,1798 3214,3348 3122,3305 3030,3262 Z"/><path d="M 3857,1755 L 3765,1712 3774,1696 3786,1683 3799,1671 3815,1663 3831,1657 3849,1654 3857,1654 3857,1755 Z"/></g><g/></g></g><g><desc>Drawing</desc><g><g style="stroke:none;fill:rgb(0,0,0)"><path d="M 7319,4538 L 6409,2458 7413,2458 7802,3712 8197,2458 9188,2458 8280,4538 7319,4538 Z"/></g><g/></g></g><g><desc>Drawing</desc><g><g style="stroke:none;fill:rgb(0,0,0)"><path d="M 9406,4538 L 9406,2458 10294,2458 10294,4538 9406,4538 Z M 9406,2286 L 9406,1759 10294,1759 10294,2286 9406,2286 Z"/></g><g/></g></g><g><desc>Drawing</desc><g><g style="stroke:none;fill:rgb(0,0,0)"><path d="M 11442,3269 L 12475,3269 12469,3227 12465,3207 12459,3187 12453,3168 12446,3150 12438,3133 12430,3116 12420,3099 12410,3083 12399,3068 12386,3054 12373,3040 12360,3026 12345,3013 12329,3001 12296,2979 12260,2960 12221,2944 12180,2931 12136,2920 12089,2913 12040,2908 11988,2907 11931,2908 11878,2913 11827,2920 11779,2930 11734,2943 11691,2959 11652,2977 11615,2999 11582,3023 11567,3037 11552,3051 11538,3065 11525,3080 11513,3096 11502,3113 11492,3130 11482,3148 11473,3167 11465,3186 11452,3226 11442,3269 Z M 13354,3904 L 13340,3946 13325,3987 13307,4027 13288,4066 13266,4103 13243,4140 13217,4174 13190,4208 13160,4240 13128,4271 13059,4329 12981,4381 12896,4429 12802,4471 12701,4507 12593,4538 12477,4564 12354,4583 12223,4597 12085,4606 11939,4609 11778,4604 11627,4591 11484,4568 11352,4536 11228,4495 11114,4445 11061,4417 11009,4386 10961,4353 10914,4318 10870,4281 10829,4242 10791,4201 10756,4158 10723,4113 10693,4067 10666,4018 10642,3968 10621,3916 10603,3862 10587,3806 10575,3748 10565,3689 10558,3627 10552,3498 10558,3369 10565,3307 10575,3247 10587,3189 10603,3133 10621,3079 10642,3027 10666,2976 10693,2928 10723,2881 10756,2837 10791,2794 10829,2753 10870,2714 10914,2677 10961,2642 11009,2609 11114,2550 11228,2500 11352,2459 11484,2427 11627,2404 11778,2391 11939,2386 12110,2391 12271,2407 12420,2432 12559,2468 12687,2514 12747,2541 12804,2571 12859,2603 12911,2637 12960,2674 13007,2714 13051,2756 13092,2801 13130,2847 13166,2897 13198,2949 13228,3003 13255,3059 13279,3118 13301,3180 13319,3244 13335,3310 13347,3378 13364,3523 13370,3677 13370,3713 11486,3713 11486,3734 11488,3754 11491,3773 11494,3792 11499,3811 11505,3828 11511,3846 11519,3862 11528,3878 11538,3894 11549,3909 11561,3923 11573,3937 11587,3950 11603,3962 11619,3974 11653,3995 11692,4014 11733,4030 11778,4043 11826,4053 11878,4060 11933,4065 11991,4066 12030,4065 12067,4063 12102,4060 12136,4056 12168,4050 12198,4043 12227,4034 12254,4024 12280,4013 12303,4001 12325,3987 12345,3973 12363,3957 12379,3941 12394,3923 12400,3913 12406,3904 13354,3904 Z"/></g><g/></g></g><g><desc>Drawing</desc><g><g style="stroke:none;fill:rgb(0,0,0)"><path d="M 13958,4538 L 13342,2458 14222,2458 14514,3795 14951,2458 15559,2458 15988,3740 16303,2458 17186,2458 16556,4538 15624,4538 15248,3404 14870,4538 13958,4538 Z"/></g><g/></g></g><g><desc>Drawing</desc><g><g style="stroke:none;fill:rgb(0,0,0)"><path d="M 18279,4538 L 17369,2458 18373,2458 18762,3712 19157,2458 20148,2458 19240,4538 18279,4538 Z"/></g><g/></g></g><g><desc>Drawing</desc><g><g style="stroke:none;fill:rgb(0,0,0)"><path d="M 22999,3624 L 22983,3743 22971,3800 22957,3854 22940,3907 22921,3958 22900,4007 22876,4054 22850,4099 22822,4143 22791,4184 22758,4223 22723,4261 22685,4296 22645,4330 22602,4362 22557,4392 22510,4420 22409,4470 22298,4512 22178,4547 22049,4574 21910,4593 21763,4605 21606,4609 21443,4604 21291,4591 21147,4568 21013,4536 20889,4495 20774,4445 20720,4417 20669,4386 20620,4353 20573,4318 20529,4281 20487,4242 20449,4201 20413,4158 20380,4114 20350,4067 20323,4019 20299,3969 20278,3916 20259,3862 20244,3807 20231,3749 20221,3689 20214,3628 20208,3499 20214,3371 20221,3309 20231,3250 20244,3192 20259,3136 20278,3082 20299,3030 20323,2980 20350,2931 20380,2885 20413,2840 20449,2797 20487,2756 20529,2716 20573,2679 20620,2643 20669,2610 20774,2551 20889,2501 21013,2460 21147,2428 21291,2405 21443,2392 21606,2387 21757,2391 21899,2401 22033,2419 22158,2444 22275,2476 22383,2515 22483,2561 22574,2614 22616,2643 22656,2674 22694,2706 22729,2741 22763,2777 22794,2814 22823,2854 22850,2895 22874,2938 22896,2983 22916,3029 22934,3077 22949,3127 22962,3178 22982,3286 22048,3286 22034,3252 22019,3219 22001,3189 21982,3161 21962,3135 21940,3112 21916,3090 21891,3071 21864,3054 21835,3040 21804,3028 21772,3018 21738,3010 21702,3004 21665,3001 21626,3000 21570,3002 21516,3008 21466,3018 21419,3033 21375,3051 21354,3062 21334,3074 21314,3087 21296,3101 21278,3116 21261,3132 21245,3148 21230,3166 21216,3184 21203,3204 21191,3223 21180,3244 21171,3266 21162,3288 21154,3311 21147,3335 21137,3385 21131,3438 21129,3495 21131,3549 21136,3601 21146,3651 21153,3674 21160,3697 21169,3719 21178,3740 21189,3760 21201,3780 21213,3799 21227,3818 21241,3835 21257,3852 21274,3868 21291,3883 21309,3897 21327,3910 21347,3922 21367,3933 21388,3942 21409,3951 21454,3966 21502,3976 21552,3983 21606,3985 21650,3983 21693,3979 21734,3971 21774,3960 21811,3946 21847,3930 21881,3910 21913,3887 21943,3862 21970,3834 21994,3805 22014,3773 22032,3739 22047,3703 22059,3664 22069,3624 22999,3624 Z"/></g><g/></g></g></g></svg>