<?xml version="1.0" encoding="UTF-8"?>
<!DOCTYPE svg PUBLIC "-//W3C//DTD SVG 1.1//EN" "http://www.w3.org/Graphics/SVG/1.1/DTD/svg11.dtd"><svg version="1.1" viewBox="0 0 25400 8890" preserveAspectRatio="xMidYMid" fill-rule="evenodd" xmlns="http://www.w3.org/2000/svg" xmlns:xlink="http://www.w3.org/1999/xlink"><g visibility="visible" id="Default"><desc>Master slide</desc></g><g visibility="visible" id="page1"><desc>Slide</desc><g><desc>Drawing</desc><g><g style="stroke:none;fill:rgb(148,189,94)"><path d="M 4315,7422 L 4005,7406 3704,7360 3413,7286 3134,7183 2869,7056 2619,6904 2385,6729 2169,6533 1973,6318 1799,6084 1647,5834 1519,5569 1417,5290 1342,4999 1296,4698 1280,4388 1296,4078 1342,3777 1416,3486 1519,3207 1646,2942 1798,2692 1973,2458 2169,2242 2385,2046 2618,1872 2868,1720 3134,1592 3413,1490 3703,1415 4005,1369 4315,1353 4625,1369 4927,1415 5217,1489 5496,1592 5761,1719 6012,1871 6245,2046 6461,2242 6656,2458 6831,2691 6983,2941 7111,3207 7213,3486 7287,3776 7333,4078 7349,4388 7333,4698 7287,5000 7213,5290 7110,5569 6983,5834 6831,6085 6656,6318 6460,6534 6245,6729 6011,6904 5761,7056 5496,7184 5217,7286 4926,7360 4625,7406 4315,7422 Z"/></g><g style="stroke:none;fill:rgb(0,0,0)"><path d="M 4312,7473 L 4002,7457 4007,7355 4317,7371 4312,7473 Z"/><path d="M 3997,7457 L 3695,7411 3711,7310 4012,7356 3997,7457 Z"/><path d="M 3690,7410 L 3399,7335 3425,7236 3716,7311 3690,7410 Z"/><path d="M 3395,7333 L 3116,7231 3151,7136 3430,7238 3395,7333 Z"/><path d="M 3111,7229 L 2846,7102 2890,7010 3155,7138 3111,7229 Z"/><path d="M 2842,7099 L 2591,6947 2644,6860 2895,7012 2842,7099 Z"/><path d="M 2587,6945 L 2354,6770 2415,6688 2648,6863 2587,6945 Z"/><path d="M 2350,6767 L 2134,6571 2203,6495 2419,6691 2350,6767 Z"/><path d="M 2131,6568 L 1935,6352 2011,6283 2207,6499 2131,6568 Z"/><path d="M 1932,6348 L 1757,6115 1839,6054 2014,6287 1932,6348 Z"/><path d="M 1755,6111 L 1603,5860 1690,5807 1842,6058 1755,6111 Z"/><path d="M 1600,5856 L 1473,5591 1564,5547 1692,5812 1600,5856 Z"/><path d="M 1471,5586 L 1369,5307 1464,5272 1566,5551 1471,5586 Z"/><path d="M 1367,5303 L 1292,5012 1391,4986 1466,5277 1367,5303 Z"/><path d="M 1291,5007 L 1245,4705 1346,4690 1392,4991 1291,5007 Z"/><path d="M 1245,4700 L 1229,4390 1331,4385 1347,4695 1245,4700 Z"/><path d="M 1229,4385 L 1245,4075 1347,4080 1331,4390 1229,4385 Z"/><path d="M 1245,4070 L 1291,3768 1392,3784 1346,4085 1245,4070 Z"/><path d="M 1292,3763 L 1367,3472 1466,3498 1391,3789 1292,3763 Z"/><path d="M 1369,3468 L 1471,3189 1566,3224 1464,3503 1369,3468 Z"/><path d="M 1473,3184 L 1600,2919 1692,2963 1564,3228 1473,3184 Z"/><path d="M 1603,2915 L 1755,2664 1842,2717 1690,2968 1603,2915 Z"/><path d="M 1757,2660 L 1932,2427 2014,2488 1839,2721 1757,2660 Z"/><path d="M 1935,2423 L 2131,2207 2207,2276 2011,2492 1935,2423 Z"/><path d="M 2134,2204 L 2350,2008 2419,2084 2203,2280 2134,2204 Z"/><path d="M 2354,2005 L 2587,1830 2648,1912 2415,2087 2354,2005 Z"/><path d="M 2591,1828 L 2842,1676 2895,1763 2644,1915 2591,1828 Z"/><path d="M 2846,1673 L 3111,1546 3155,1637 2890,1765 2846,1673 Z"/><path d="M 3116,1544 L 3395,1442 3430,1537 3151,1639 3116,1544 Z"/><path d="M 3399,1440 L 3690,1365 3716,1464 3425,1539 3399,1440 Z"/><path d="M 3695,1364 L 3997,1318 4012,1419 3711,1465 3695,1364 Z"/><path d="M 4002,1318 L 4312,1302 4317,1404 4007,1420 4002,1318 Z"/><path d="M 4317,1302 L 4627,1318 4622,1420 4312,1404 4317,1302 Z"/><path d="M 4632,1318 L 4934,1364 4918,1465 4617,1419 4632,1318 Z"/><path d="M 4939,1365 L 5230,1440 5204,1539 4913,1464 4939,1365 Z"/><path d="M 5234,1442 L 5513,1544 5478,1639 5199,1537 5234,1442 Z"/><path d="M 5518,1546 L 5783,1673 5739,1765 5474,1637 5518,1546 Z"/><path d="M 5787,1676 L 6038,1828 5985,1915 5734,1763 5787,1676 Z"/><path d="M 6042,1830 L 6275,2005 6214,2087 5981,1912 6042,1830 Z"/><path d="M 6279,2008 L 6495,2204 6426,2280 6210,2084 6279,2008 Z"/><path d="M 6498,2207 L 6694,2423 6618,2492 6422,2276 6498,2207 Z"/><path d="M 6697,2427 L 6872,2660 6790,2721 6615,2488 6697,2427 Z"/><path d="M 6874,2664 L 7026,2915 6939,2968 6787,2717 6874,2664 Z"/><path d="M 7029,2919 L 7156,3184 7065,3228 6937,2963 7029,2919 Z"/><path d="M 7158,3189 L 7260,3468 7165,3503 7063,3224 7158,3189 Z"/><path d="M 7262,3472 L 7337,3763 7238,3789 7163,3498 7262,3472 Z"/><path d="M 7338,3768 L 7384,4070 7283,4085 7237,3784 7338,3768 Z"/><path d="M 7384,4075 L 7400,4385 7298,4390 7282,4080 7384,4075 Z"/><path d="M 7400,4390 L 7384,4700 7282,4695 7298,4385 7400,4390 Z"/><path d="M 7384,4705 L 7338,5007 7237,4991 7283,4690 7384,4705 Z"/><path d="M 7337,5012 L 7262,5303 7163,5277 7238,4986 7337,5012 Z"/><path d="M 7260,5307 L 7158,5586 7063,5551 7165,5272 7260,5307 Z"/><path d="M 7156,5591 L 7029,5856 6937,5812 7065,5547 7156,5591 Z"/><path d="M 7026,5860 L 6874,6111 6787,6058 6939,5807 7026,5860 Z"/><path d="M 6872,6115 L 6697,6348 6615,6287 6790,6054 6872,6115 Z"/><path d="M 6694,6352 L 6498,6568 6422,6499 6618,6283 6694,6352 Z"/><path d="M 6495,6571 L 6279,6767 6210,6691 6426,6495 6495,6571 Z"/><path d="M 6275,6770 L 6042,6945 5981,6863 6214,6688 6275,6770 Z"/><path d="M 6038,6947 L 5787,7099 5734,7012 5985,6860 6038,6947 Z"/><path d="M 5783,7102 L 5518,7229 5474,7138 5739,7010 5783,7102 Z"/><path d="M 5513,7231 L 5234,7333 5199,7238 5478,7136 5513,7231 Z"/><path d="M 5230,7335 L 4939,7410 4913,7311 5204,7236 5230,7335 Z"/><path d="M 4934,7411 L 4632,7457 4617,7356 4918,7310 4934,7411 Z"/><path d="M 4627,7457 L 4317,7473 4312,7371 4622,7355 4627,7457 Z"/></g><g/></g></g><g><desc>Group</desc><g><desc>Drawing</desc><g><g style="stroke:none;fill:rgb(115,156,62)"><path d="M 4377,1533 L 4316,4416 4255,1533 4377,1533 Z M 4316,4416 L 4322,3875 4320,3740 4318,3707 4317,3698 4316,3696 4316,3695 4316,3695 4316,3695 4316,3695 4316,3695 4316,3696 4315,3698 4314,3707 4312,3740 4310,3875 4316,4416 Z"/></g><g/></g></g><g><desc>Drawing</desc><g><g style="stroke:none;fill:rgb(115,156,62)"><path d="M 7198,4462 L 4315,4401 7198,4340 7198,4462 Z M 4315,4401 L 4856,4407 4991,4405 5025,4403 5033,4402 5035,4402 5036,4401 5036,4401 5036,4401 5036,4401 5036,4401 5035,4401 5033,4400 5025,4399 4991,4398 4856,4395 4315,4401 Z"/></g><g/></g></g><g><desc>Drawing</desc><g><g style="stroke:none;fill:rgb(115,156,62)"><path d="M 1448,4462 L 4330,4401 1448,4340 1448,4462 Z M 4330,4401 L 3790,4407 3655,4404 3621,4403 3612,4402 3610,4401 3610,4401 3610,4401 3610,4401 3610,4401 3610,4401 3610,4401 3612,4400 3621,4399 3655,4397 3790,4395 4330,4401 Z"/></g><g/></g></g><g><desc>Drawing</desc><g><g style="stroke:none;fill:rgb(115,156,62)"><path d="M 4376,7283 L 4315,4401 4254,7283 4376,7283 Z M 4315,4401 L 4321,4942 4319,5077 4317,5111 4316,5119 4316,5121 4316,5122 4316,5122 4315,5122 4315,5122 4315,5122 4315,5121 4314,5119 4314,5111 4312,5077 4310,4942 4315,4401 Z"/></g><g/></g></g></g><g><desc>Group</desc><g><desc>Drawing</desc><g><g style="stroke:none;fill:rgb(115,156,62)"><path d="M 3876,1567 L 4317,4417 3756,1589 3876,1567 Z M 4317,4417 L 4229,3884 4203,3751 4196,3718 4193,3710 4192,3708 4192,3708 4192,3708 4192,3708 4192,3708 4192,3708 4192,3708 4191,3710 4192,3719 4196,3753 4217,3886 4317,4417 Z"/></g><g/></g></g><g><desc>Drawing</desc><g><g style="stroke:none;fill:rgb(115,156,62)"><path d="M 7164,3962 L 4314,4403 7143,3842 7164,3962 Z M 4314,4403 L 4848,4314 4981,4289 5014,4281 5022,4279 5024,4278 5025,4277 5025,4277 5025,4277 5025,4277 5024,4277 5024,4277 5022,4277 5013,4277 4980,4282 4846,4303 4314,4403 Z"/></g><g/></g></g><g><desc>Drawing</desc><g><g style="stroke:none;fill:rgb(115,156,62)"><path d="M 1501,4960 L 4330,4400 1480,4840 1501,4960 Z M 4330,4400 L 3799,4499 3665,4520 3631,4525 3623,4525 3621,4525 3620,4525 3620,4525 3620,4525 3620,4525 3620,4525 3621,4524 3623,4523 3631,4521 3664,4514 3797,4488 4330,4400 Z"/></g><g/></g></g><g><desc>Drawing</desc><g><g style="stroke:none;fill:rgb(115,156,62)"><path d="M 4875,7230 L 4315,4403 4755,7251 4875,7230 Z M 4315,4403 L 4414,4934 4435,5067 4440,5101 4440,5110 4440,5112 4440,5112 4440,5112 4440,5112 4440,5112 4439,5112 4439,5112 4438,5110 4436,5102 4428,5069 4403,4936 4315,4403 Z"/></g><g/></g></g></g><g><desc>Group</desc><g><desc>Drawing</desc><g><g style="stroke:none;fill:rgb(115,156,62)"><path d="M 3390,1689 L 4319,4419 3275,1731 3390,1689 Z M 4319,4419 L 4139,3909 4091,3782 4078,3751 4074,3744 4073,3742 4072,3741 4072,3741 4072,3741 4072,3741 4072,3742 4072,3742 4072,3744 4074,3753 4084,3785 4128,3913 4319,4419 Z"/></g><g/></g></g><g><desc>Drawing</desc><g><g style="stroke:none;fill:rgb(115,156,62)"><path d="M 7043,3477 L 4313,4405 7001,3362 7043,3477 Z M 4313,4405 L 4822,4226 4949,4178 4980,4164 4987,4161 4989,4159 4990,4159 4990,4159 4990,4159 4990,4159 4989,4159 4989,4159 4987,4159 4978,4161 4946,4171 4818,4215 4313,4405 Z"/></g><g/></g></g><g><desc>Drawing</desc><g><g style="stroke:none;fill:rgb(115,156,62)"><path d="M 1641,5443 L 4328,4400 1598,5328 1641,5443 Z M 4328,4400 L 3822,4590 3694,4634 3662,4644 3654,4646 3652,4646 3651,4646 3651,4646 3651,4646 3651,4646 3651,4646 3651,4646 3653,4644 3661,4641 3692,4627 3818,4579 4328,4400 Z"/></g><g/></g></g><g><desc>Drawing</desc><g><g style="stroke:none;fill:rgb(115,156,62)"><path d="M 5356,7093 L 4313,4404 5242,7134 5356,7093 Z M 4313,4404 L 4503,4911 4548,5039 4558,5071 4560,5079 4560,5082 4560,5082 4560,5082 4560,5082 4560,5082 4559,5082 4559,5082 4558,5080 4554,5072 4541,5041 4493,4915 4313,4404 Z"/></g><g/></g></g></g><g><desc>Group</desc><g><desc>Drawing</desc><g><g style="stroke:none;fill:rgb(115,156,62)"><path d="M 2932,1893 L 4320,4420 2826,1954 2932,1893 Z M 4320,4420 L 4056,3950 3986,3834 3968,3805 3963,3798 3961,3797 3961,3797 3961,3797 3961,3797 3961,3797 3960,3797 3961,3797 3961,3799 3965,3807 3980,3837 4046,3955 4320,4420 Z"/></g><g/></g></g><g><desc>Drawing</desc><g><g style="stroke:none;fill:rgb(115,156,62)"><path d="M 6840,3019 L 4313,4407 6779,2913 6840,3019 Z M 4313,4407 L 4783,4142 4899,4073 4927,4054 4934,4049 4936,4048 4936,4047 4936,4047 4936,4047 4936,4047 4936,4047 4935,4047 4933,4048 4925,4051 4895,4067 4777,4132 4313,4407 Z"/></g><g/></g></g><g><desc>Drawing</desc><g><g style="stroke:none;fill:rgb(115,156,62)"><path d="M 1860,5893 L 4326,4400 1799,5788 1860,5893 Z M 4326,4400 L 3860,4675 3742,4741 3712,4756 3704,4760 3702,4760 3702,4760 3702,4760 3701,4760 3701,4760 3701,4760 3702,4759 3703,4758 3710,4753 3739,4734 3855,4665 4326,4400 Z"/></g><g/></g></g><g><desc>Drawing</desc><g><g style="stroke:none;fill:rgb(115,156,62)"><path d="M 5807,6873 L 4313,4407 5701,6934 5807,6873 Z M 4313,4407 L 4588,4872 4654,4991 4669,5021 4673,5028 4674,5030 4674,5031 4674,5031 4673,5031 4673,5031 4673,5031 4673,5031 4671,5029 4666,5023 4648,4994 4578,4878 4313,4407 Z"/></g><g/></g></g></g><g><desc>Group</desc><g><desc>Drawing</desc><g><g style="stroke:none;fill:rgb(115,156,62)"><path d="M 2515,2173 L 4322,4420 2422,2251 2515,2173 Z M 4322,4420 L 3979,4003 3890,3901 3867,3876 3861,3870 3859,3869 3859,3868 3859,3868 3858,3868 3858,3868 3858,3869 3859,3869 3860,3871 3864,3878 3885,3905 3970,4010 4322,4420 Z"/></g><g/></g></g><g><desc>Drawing</desc><g><g style="stroke:none;fill:rgb(115,156,62)"><path d="M 6560,2603 L 4312,4409 6481,2509 6560,2603 Z M 4312,4409 L 4730,4066 4832,3977 4856,3954 4862,3948 4864,3947 4864,3946 4864,3946 4864,3946 4864,3946 4864,3946 4863,3946 4861,3947 4854,3952 4827,3972 4722,4057 4312,4409 Z"/></g><g/></g></g><g><desc>Drawing</desc><g><g style="stroke:none;fill:rgb(115,156,62)"><path d="M 2155,6299 L 4324,4399 2076,6205 2155,6299 Z M 4324,4399 L 3914,4751 3809,4836 3782,4856 3775,4861 3773,4862 3772,4862 3772,4862 3772,4862 3772,4862 3772,4862 3772,4861 3773,4860 3779,4853 3804,4830 3906,4742 4324,4399 Z"/></g><g/></g></g><g><desc>Drawing</desc><g><g style="stroke:none;fill:rgb(115,156,62)"><path d="M 6211,6578 L 4312,4408 6118,6656 6211,6578 Z M 4312,4408 L 4663,4818 4748,4923 4769,4950 4773,4957 4774,4959 4774,4959 4774,4960 4774,4960 4774,4960 4774,4960 4774,4960 4772,4958 4766,4952 4743,4928 4654,4826 4312,4408 Z"/></g><g/></g></g></g><g><desc>Group</desc><g><desc>Drawing</desc><g><g style="stroke:none;fill:rgb(115,156,62)"><path d="M 2154,2520 L 4323,4421 2076,2614 2154,2520 Z M 4323,4421 L 3912,4068 3807,3983 3780,3962 3773,3958 3771,3957 3771,3956 3771,3956 3771,3956 3771,3957 3771,3957 3771,3957 3772,3959 3778,3965 3803,3988 3905,4077 4323,4421 Z"/></g><g/></g></g><g><desc>Drawing</desc><g><g style="stroke:none;fill:rgb(115,156,62)"><path d="M 6211,2241 L 4312,4411 6118,2163 6211,2241 Z M 4312,4411 L 4664,4000 4749,3895 4770,3868 4774,3861 4775,3859 4775,3858 4775,3858 4775,3858 4775,3858 4775,3858 4775,3858 4773,3860 4767,3866 4744,3890 4655,3993 4312,4411 Z"/></g><g/></g></g><g><desc>Drawing</desc><g><g style="stroke:none;fill:rgb(115,156,62)"><path d="M 2515,6646 L 4322,4398 2422,6568 2515,6646 Z M 4322,4398 L 3979,4816 3890,4918 3867,4943 3861,4949 3859,4950 3859,4951 3859,4951 3858,4951 3858,4950 3858,4950 3859,4950 3860,4948 3864,4941 3885,4914 3970,4809 4322,4398 Z"/></g><g/></g></g><g><desc>Drawing</desc><g><g style="stroke:none;fill:rgb(115,156,62)"><path d="M 6559,6217 L 4311,4410 6480,6310 6559,6217 Z M 4311,4410 L 4729,4753 4831,4841 4856,4864 4861,4870 4863,4872 4863,4873 4863,4873 4863,4873 4863,4873 4863,4873 4862,4873 4860,4872 4853,4867 4826,4847 4721,4762 4311,4410 Z"/></g><g/></g></g></g><g><desc>Group</desc><g><desc>Drawing</desc><g><g style="stroke:none;fill:rgb(115,156,62)"><path d="M 1860,2925 L 4327,4419 1799,3031 1860,2925 Z M 4327,4419 L 3861,4144 3743,4079 3713,4063 3705,4060 3703,4059 3703,4059 3703,4059 3702,4059 3702,4059 3702,4059 3703,4060 3704,4061 3711,4066 3740,4085 3856,4154 4327,4419 Z"/></g><g/></g></g><g><desc>Drawing</desc><g><g style="stroke:none;fill:rgb(115,156,62)"><path d="M 5808,1946 L 4313,4412 5702,1885 5808,1946 Z M 4313,4412 L 4589,3947 4654,3829 4670,3799 4673,3791 4674,3789 4674,3788 4674,3788 4674,3788 4674,3788 4674,3788 4673,3788 4672,3790 4667,3797 4648,3825 4579,3941 4313,4412 Z"/></g><g/></g></g><g><desc>Drawing</desc><g><g style="stroke:none;fill:rgb(115,156,62)"><path d="M 2933,6926 L 4321,4399 2827,6864 2933,6926 Z M 4321,4399 L 4056,4870 3986,4986 3968,5015 3963,5021 3961,5023 3961,5023 3961,5023 3960,5023 3960,5023 3960,5023 3960,5022 3961,5020 3964,5013 3980,4983 4046,4864 4321,4399 Z"/></g><g/></g></g><g><desc>Drawing</desc><g><g style="stroke:none;fill:rgb(115,156,62)"><path d="M 6840,5800 L 4314,4412 6779,5906 6840,5800 Z M 4314,4412 L 4785,4677 4901,4747 4929,4765 4936,4770 4937,4772 4938,4772 4938,4772 4938,4772 4938,4773 4938,4773 4937,4772 4935,4772 4927,4768 4897,4753 4779,4687 4314,4412 Z"/></g><g/></g></g></g><g><desc>Group</desc><g><desc>Drawing</desc><g><g style="stroke:none;fill:rgb(115,156,62)"><path d="M 1641,3375 L 4329,4418 1599,3489 1641,3375 Z M 4329,4418 L 3823,4228 3695,4184 3663,4174 3655,4172 3652,4171 3652,4171 3652,4171 3652,4172 3652,4172 3652,4172 3652,4172 3654,4173 3662,4177 3693,4190 3819,4239 4329,4418 Z"/></g><g/></g></g><g><desc>Drawing</desc><g><g style="stroke:none;fill:rgb(115,156,62)"><path d="M 5358,1725 L 4315,4412 5243,1683 5358,1725 Z M 4315,4412 L 4505,3907 4549,3779 4559,3747 4561,3739 4562,3736 4562,3736 4562,3736 4561,3736 4561,3736 4561,3736 4561,3736 4560,3738 4556,3746 4543,3777 4494,3903 4315,4412 Z"/></g><g/></g></g><g><desc>Drawing</desc><g><g style="stroke:none;fill:rgb(115,156,62)"><path d="M 3391,7128 L 4320,4398 3277,7086 3391,7128 Z M 4320,4398 L 4140,4908 4092,5034 4079,5065 4075,5073 4074,5075 4074,5075 4074,5075 4073,5075 4073,5075 4073,5075 4073,5074 4073,5072 4075,5064 4085,5032 4130,4904 4320,4398 Z"/></g><g/></g></g><g><desc>Drawing</desc><g><g style="stroke:none;fill:rgb(115,156,62)"><path d="M 7044,5341 L 4314,4412 7002,5456 7044,5341 Z M 4314,4412 L 4824,4592 4950,4640 4981,4653 4989,4657 4991,4658 4991,4659 4991,4659 4991,4659 4991,4659 4991,4659 4990,4659 4988,4659 4980,4657 4948,4647 4820,4603 4314,4412 Z"/></g><g/></g></g></g><g><desc>Group</desc><g><desc>Drawing</desc><g><g style="stroke:none;fill:rgb(115,156,62)"><path d="M 1502,3856 L 4330,4417 1481,3977 1502,3856 Z M 4330,4417 L 3799,4317 3665,4296 3632,4292 3623,4291 3621,4291 3621,4291 3620,4292 3620,4292 3620,4292 3620,4292 3621,4292 3623,4293 3631,4295 3664,4303 3797,4329 4330,4417 Z"/></g><g/></g></g><g><desc>Drawing</desc><g><g style="stroke:none;fill:rgb(115,156,62)"><path d="M 4877,1586 L 4316,4415 4757,1565 4877,1586 Z M 4316,4415 L 4415,3883 4437,3750 4441,3716 4442,3708 4441,3706 4441,3705 4441,3705 4441,3705 4441,3705 4441,3705 4441,3705 4440,3707 4437,3716 4430,3749 4404,3881 4316,4415 Z"/></g><g/></g></g><g><desc>Drawing</desc><g><g style="stroke:none;fill:rgb(115,156,62)"><path d="M 3878,7249 L 4319,4399 3758,7228 3878,7249 Z M 4319,4399 L 4231,4932 4205,5064 4198,5097 4195,5106 4194,5108 4194,5108 4194,5108 4194,5108 4194,5108 4194,5108 4193,5107 4193,5105 4194,5097 4198,5063 4220,4930 4319,4399 Z"/></g><g/></g></g><g><desc>Drawing</desc><g><g style="stroke:none;fill:rgb(115,156,62)"><path d="M 7165,4855 L 4315,4414 7144,4975 7165,4855 Z M 4315,4414 L 4848,4502 4981,4528 5014,4536 5022,4538 5024,4539 5024,4539 5024,4539 5024,4539 5024,4540 5024,4540 5024,4540 5021,4540 5013,4539 4979,4535 4846,4514 4315,4414 Z"/></g><g/></g></g></g><g><desc>Drawing</desc><g><g style="stroke:none;fill:rgb(0,0,0)"><path d="M 5528,4416 L 5526,4355 5522,4293 5514,4232 5503,4172 5489,4112 5472,4053 5452,3994 5430,3937 5404,3881 5375,3827 5344,3774 5310,3722 5274,3673 5235,3625 5194,3580 5150,3536 5105,3495 5057,3456 5008,3420 4956,3386 4903,3355 4849,3326 4793,3300 4736,3278 4677,3258 4618,3241 4558,3227 4498,3216 4437,3208 4375,3204 4314,3202 4314,3202 4253,3204 4191,3208 4130,3216 4070,3227 4010,3241 3951,3258 3892,3278 3835,3300 3779,3326 3725,3355 3672,3386 3620,3420 3571,3456 3523,3495 3478,3536 3434,3580 3393,3625 3354,3673 3318,3722 3284,3774 3253,3827 3224,3881 3198,3937 3176,3994 3156,4053 3139,4112 3125,4172 3114,4232 3106,4293 3102,4355 3100,4416 3100,4416 3102,4477 3106,4539 3114,4600 3125,4660 3139,4720 3156,4779 3176,4838 3198,4895 3224,4951 3253,5005 3284,5058 3318,5110 3354,5159 3393,5207 3434,5252 3478,5296 3523,5337 3571,5376 3620,5412 3672,5446 3725,5477 3779,5506 3835,5532 3892,5554 3951,5574 4010,5591 4070,5605 4130,5616 4191,5624 4253,5628 4314,5630 4314,5630 4375,5628 4437,5624 4498,5616 4558,5605 4618,5591 4677,5574 4736,5554 4793,5532 4849,5506 4903,5477 4956,5446 5008,5412 5057,5376 5105,5337 5150,5296 5194,5252 5235,5207 5274,5159 5310,5110 5344,5058 5375,5005 5404,4951 5430,4895 5452,4838 5472,4779 5489,4720 5503,4660 5514,4600 5522,4539 5526,4477 5528,4416 Z"/></g><g style="stroke:rgb(0,0,0);fill:none"><path style="fill:none" d="M 4315,5630 L 4190,5624 4070,5605 3954,5575 3842,5535 3736,5483 3636,5423 3543,5353 3456,5274 3378,5188 3308,5095 3247,4995 3196,4889 3156,4777 3126,4661 3107,4540 3101,4416 3107,4292 3126,4171 3156,4055 3196,3943 3247,3837 3308,3737 3378,3644 3456,3558 3543,3479 3636,3409 3736,3349 3842,3297 3954,3257 4070,3227 4190,3208 4315,3202 4439,3208 4559,3227 4675,3257 4787,3297 4893,3349 4993,3409 5086,3479 5173,3558 5251,3644 5321,3737 5382,3837 5433,3943 5473,4055 5503,4171 5522,4292 5528,4416 5522,4540 5503,4661 5473,4777 5433,4889 5382,4995 5321,5095 5251,5188 5173,5274 5086,5353 4993,5423 4893,5483 4787,5535 4675,5575 4559,5605 4439,5624 4315,5630"/></g><g/></g></g><g><desc>Drawing</desc><g><g style="stroke:none;fill:rgb(255,255,255)"><path d="M 2545,2866 L 2545,2859 2544,2852 2543,2845 2542,2839 2541,2832 2539,2825 2537,2819 2534,2812 2531,2806 2528,2800 2524,2794 2521,2788 2517,2783 2512,2777 2508,2772 2503,2767 2498,2763 2492,2758 2487,2754 2481,2751 2475,2747 2469,2744 2463,2741 2456,2738 2450,2736 2443,2734 2436,2733 2430,2732 2423,2731 2416,2730 2409,2730 2409,2730 2402,2730 2395,2731 2388,2732 2382,2733 2375,2734 2368,2736 2362,2738 2355,2741 2349,2744 2343,2747 2337,2751 2331,2754 2326,2758 2320,2763 2315,2767 2310,2772 2306,2777 2301,2783 2297,2788 2294,2794 2290,2800 2287,2806 2284,2812 2281,2819 2279,2825 2277,2832 2276,2839 2275,2845 2274,2852 2273,2859 2273,2866 2273,2866 2273,2873 2274,2880 2275,2887 2276,2893 2277,2900 2279,2907 2281,2913 2284,2920 2287,2926 2290,2932 2294,2938 2297,2944 2301,2949 2306,2955 2310,2960 2315,2965 2320,2969 2326,2974 2331,2978 2337,2981 2343,2985 2349,2988 2355,2991 2362,2994 2368,2996 2375,2998 2382,2999 2388,3000 2395,3001 2402,3002 2409,3002 2409,3002 2416,3002 2423,3001 2430,3000 2436,2999 2443,2998 2450,2996 2456,2994 2463,2991 2469,2988 2475,2985 2481,2981 2487,2978 2492,2974 2498,2969 2503,2965 2508,2960 2512,2955 2517,2949 2521,2944 2524,2938 2528,2932 2531,2926 2534,2920 2537,2913 2539,2907 2541,2900 2542,2893 2543,2887 2544,2880 2545,2873 2545,2866 Z"/></g><g/></g></g><g><desc>Drawing</desc><g><g style="stroke:none;fill:rgb(255,255,255)"><path d="M 2995,2513 L 2995,2502 2994,2491 2992,2480 2990,2470 2988,2459 2985,2448 2981,2438 2977,2428 2972,2418 2967,2408 2961,2399 2954,2390 2948,2381 2940,2372 2933,2364 2925,2356 2916,2349 2907,2342 2898,2336 2889,2330 2879,2324 2869,2319 2858,2315 2847,2310 2837,2307 2826,2304 2814,2301 2803,2299 2792,2298 2780,2297 2769,2297 2769,2297 2758,2297 2746,2298 2735,2299 2724,2301 2712,2304 2701,2307 2691,2310 2680,2315 2669,2319 2659,2324 2649,2330 2640,2336 2631,2342 2622,2349 2613,2356 2605,2364 2598,2372 2590,2381 2584,2390 2577,2399 2571,2408 2566,2418 2561,2428 2557,2438 2553,2448 2550,2459 2548,2470 2546,2480 2544,2491 2543,2502 2543,2513 2543,2513 2543,2524 2544,2535 2546,2546 2548,2556 2550,2567 2553,2578 2557,2588 2561,2598 2566,2608 2571,2618 2577,2627 2584,2636 2590,2645 2598,2654 2605,2662 2613,2670 2622,2677 2631,2684 2640,2690 2649,2696 2659,2702 2669,2707 2680,2711 2691,2716 2701,2719 2712,2722 2724,2725 2735,2727 2746,2728 2758,2729 2769,2729 2769,2729 2780,2729 2792,2728 2803,2727 2814,2725 2826,2722 2837,2719 2847,2716 2858,2711 2869,2707 2879,2702 2889,2696 2898,2690 2907,2684 2916,2677 2925,2670 2933,2662 2940,2654 2948,2645 2954,2636 2961,2627 2967,2618 2972,2608 2977,2598 2981,2588 2985,2578 2988,2567 2990,2556 2992,2546 2994,2535 2995,2524 2995,2513 Z"/></g><g/></g></g><g><desc>Drawing</desc><g><g style="stroke:none;fill:rgb(115,156,62)"><path d="M 4335,7294 L 4040,7279 3753,7235 3477,7164 3212,7067 2959,6946 2721,6801 2499,6635 2294,6449 2108,6244 1942,6022 1797,5784 1676,5531 1579,5266 1508,4990 1464,4703 1449,4408 1453,4253 1480,4502 1531,4742 1604,4974 1697,5196 1810,5407 1941,5606 2090,5791 2255,5961 2435,6116 2628,6253 2835,6373 3053,6474 3282,6554 3519,6613 3765,6649 4018,6661 4281,6648 4536,6609 4782,6545 5018,6459 5243,6351 5455,6222 5653,6074 5835,5908 6001,5726 6149,5528 6278,5316 6386,5091 6472,4855 6536,4609 6575,4354 6588,4091 6576,3838 6540,3592 6481,3355 6401,3126 6300,2908 6180,2701 6043,2508 5888,2328 5718,2163 5533,2014 5334,1883 5123,1770 4901,1677 4669,1604 4429,1553 4180,1526 4335,1522 4630,1537 4917,1581 5193,1652 5458,1749 5711,1870 5949,2015 6171,2181 6376,2367 6562,2572 6728,2794 6873,3032 6994,3285 7091,3550 7162,3826 7206,4113 7221,4408 7206,4703 7162,4990 7091,5266 6994,5531 6873,5784 6728,6022 6562,6244 6376,6449 6171,6635 5949,6801 5711,6946 5458,7067 5193,7164 4917,7235 4630,7279 4335,7294 Z"/></g><g/></g></g><g><desc>Drawing</desc><g><g style="stroke:none;fill:rgb(255,255,255)"><path d="M 5052,3023 L 6689,3023 5186,6190 5084,6190 5086,6195 3451,6195 1948,3028 3585,3028 4317,4573 5052,3023 Z"/></g><g style="stroke:none;fill:rgb(115,156,62)"><path d="M 5052,2922 L 6689,2922 6689,3023 6689,3125 5052,3125 5052,3023 5052,2922 Z"/><path d="M 6689,3023 L 6689,2922 6707,2923 6724,2928 6740,2935 6754,2945 6767,2958 6777,2972 6784,2988 6789,3005 6791,3023 6789,3041 6784,3058 6781,3067 6689,3023 Z"/><path d="M 6781,3067 L 5278,6234 5186,6190 5094,6146 6597,2979 6689,3023 6781,3067 Z"/><path d="M 5186,6190 L 5278,6234 5269,6249 5257,6262 5244,6274 5228,6282 5212,6288 5194,6291 5186,6292 5186,6190 Z"/><path d="M 5186,6292 L 5084,6292 5084,6190 5084,6089 5186,6089 5186,6190 5186,6292 Z"/><path d="M 5084,6190 L 4990,6228 4985,6211 4983,6193 4984,6176 4988,6158 4995,6142 5004,6127 5016,6114 5031,6104 5046,6096 5063,6091 5081,6089 5084,6089 5084,6190 Z"/><path d="M 5178,6152 L 5180,6157 5086,6195 4992,6233 4990,6228 5084,6190 5178,6152 Z"/><path d="M 5086,6195 L 5180,6157 5185,6174 5187,6192 5186,6209 5182,6227 5175,6243 5166,6258 5154,6271 5139,6281 5124,6289 5107,6294 5089,6296 5086,6297 5086,6195 Z"/><path d="M 5086,6297 L 3451,6297 3451,6195 3451,6094 5086,6094 5086,6195 5086,6297 Z"/><path d="M 3451,6195 L 3451,6297 3433,6295 3416,6290 3400,6283 3386,6273 3373,6260 3363,6246 3359,6239 3451,6195 Z"/><path d="M 3359,6239 L 1856,3072 1948,3028 2040,2984 3543,6151 3451,6195 3359,6239 Z"/><path d="M 1948,3028 L 1856,3072 1850,3055 1847,3038 1847,3020 1850,3002 1856,2986 1864,2970 1876,2957 1889,2945 1904,2936 1921,2930 1938,2927 1948,2927 1948,3028 Z"/><path d="M 1948,2927 L 3585,2927 3585,3028 3585,3130 1948,3130 1948,3028 1948,2927 Z"/><path d="M 3585,3028 L 3585,2927 3603,2928 3620,2933 3636,2940 3650,2950 3663,2963 3673,2977 3677,2985 3585,3028 Z"/><path d="M 3677,2985 L 4409,4530 4317,4573 4225,4616 3493,3071 3585,3028 3677,2985 Z"/><path d="M 4317,4573 L 4409,4616 4400,4632 4388,4645 4375,4657 4359,4665 4343,4671 4325,4674 4308,4674 4290,4671 4274,4665 4258,4656 4245,4644 4233,4631 4225,4616 4317,4573 Z"/><path d="M 4225,4530 L 4960,2980 5052,3023 5144,3066 4409,4616 4317,4573 4225,4530 Z"/><path d="M 5052,3023 L 4960,2980 4969,2964 4981,2951 4994,2939 5010,2931 5026,2925 5044,2922 5052,2922 5052,3023 Z"/></g><g/></g></g><g><desc>Drawing</desc><g><g style="stroke:none;fill:rgb(0,0,0)"><path d="M 8514,5806 L 7604,3726 8608,3726 8997,4980 9392,3726 10383,3726 9475,5806 8514,5806 Z"/></g><g/></g></g><g><desc>Drawing</desc><g><g style="stroke:none;fill:rgb(0,0,0)"><path d="M 10601,5806 L 10601,3726 11489,3726 11489,5806 10601,5806 Z M 10601,3554 L 10601,3027 11489,3027 11489,3554 10601,3554 Z"/></g><g/></g></g><g><desc>Drawing</desc><g><g style="stroke:none;fill:rgb(0,0,0)"><path d="M 12637,4537 L 13670,4537 13664,4495 13660,4475 13654,4455 13648,4436 13641,4418 13633,4401 13625,4384 13615,4367 13605,4351 13594,4336 13581,4322 13568,4308 13555,4294 13540,4281 13524,4269 13491,4247 13455,4228 13416,4212 13375,4199 13331,4188 13284,4181 13235,4176 13183,4175 13126,4176 13073,4181 13022,4188 12974,4198 12929,4211 12886,4227 12847,4245 12810,4267 12777,4291 12762,4305 12747,4319 12733,4333 12720,4348 12708,4364 12697,4381 12687,4398 12677,4416 12668,4435 12660,4454 12647,4494 12637,4537 Z M 14549,5172 L 14535,5214 14520,5255 14502,5295 14483,5334 14461,5371 14438,5408 14412,5442 14385,5476 14355,5508 14323,5539 14254,5597 14176,5649 14091,5697 13997,5739 13896,5775 13788,5806 13672,5832 13549,5851 13418,5865 13280,5874 13134,5877 12973,5872 12822,5859 12679,5836 12547,5804 12423,5763 12309,5713 12256,5685 12204,5654 12156,5621 12109,5586 12065,5549 12024,5510 11986,5469 11951,5426 11918,5381 11888,5335 11861,5286 11837,5236 11816,5184 11798,5130 11782,5074 11770,5016 11760,4957 11753,4895 11747,4766 11753,4637 11760,4575 11770,4515 11782,4457 11798,4401 11816,4347 11837,4295 11861,4244 11888,4196 11918,4149 11951,4105 11986,4062 12024,4021 12065,3982 12109,3945 12156,3910 12204,3877 12309,3818 12423,3768 12547,3727 12679,3695 12822,3672 12973,3659 13134,3654 13305,3659 13466,3675 13615,3700 13754,3736 13882,3782 13942,3809 13999,3839 14054,3871 14106,3905 14155,3942 14202,3982 14246,4024 14287,4069 14325,4115 14361,4165 14393,4217 14423,4271 14450,4327 14474,4386 14496,4448 14514,4512 14530,4578 14542,4646 14559,4791 14565,4945 14565,4981 12681,4981 12681,5002 12683,5022 12686,5041 12689,5060 12694,5079 12700,5096 12706,5114 12714,5130 12723,5146 12733,5162 12744,5177 12756,5191 12768,5205 12782,5218 12798,5230 12814,5242 12848,5263 12887,5282 12928,5298 12973,5311 13021,5321 13073,5328 13128,5333 13186,5334 13225,5333 13262,5331 13297,5328 13331,5324 13363,5318 13393,5311 13422,5302 13449,5292 13475,5281 13498,5269 13520,5255 13540,5241 13558,5225 13574,5209 13589,5191 13595,5181 13601,5172 14549,5172 Z"/></g><g/></g></g><g><desc>Drawing</desc><g><g style="stroke:none;fill:rgb(0,0,0)"><path d="M 15153,5806 L 14537,3726 15417,3726 15709,5063 16146,3726 16754,3726 17183,5008 17498,3726 18381,3726 17751,5806 16819,5806 16443,4672 16065,5806 15153,5806 Z"/></g><g/></g></g><g><desc>Drawing</desc><g><g style="stroke:none;fill:rgb(0,0,0)"><path d="M 19474,5806 L 18564,3726 19568,3726 19957,4980 20352,3726 21343,3726 20435,5806 19474,5806 Z"/></g><g/></g></g><g><desc>Drawing</desc><g><g style="stroke:none;fill:rgb(0,0,0)"><path d="M 24194,4892 L 24178,5011 24166,5068 24152,5122 24135,5175 24116,5226 24095,5275 24071,5322 24045,5367 24017,5411 23986,5452 23953,5491 23918,5529 23880,5564 23840,5598 23797,5630 23752,5660 23705,5688 23604,5738 23493,5780 23373,5815 23244,5842 23105,5861 22958,5873 22801,5877 22638,5872 22486,5859 22342,5836 22208,5804 22084,5763 21969,5713 21915,5685 21864,5654 21815,5621 21768,5586 21724,5549 21682,5510 21644,5469 21608,5426 21575,5382 21545,5335 21518,5287 21494,5237 21473,5184 21454,5130 21439,5075 21426,5017 21416,4957 21409,4896 21403,4767 21409,4639 21416,4577 21426,4518 21439,4460 21454,4404 21473,4350 21494,4298 21518,4248 21545,4199 21575,4153 21608,4108 21644,4065 21682,4024 21724,3984 21768,3947 21815,3911 21864,3878 21969,3819 22084,3769 22208,3728 22342,3696 22486,3673 22638,3660 22801,3655 22952,3659 23094,3669 23228,3687 23353,3712 23470,3744 23578,3783 23678,3829 23769,3882 23811,3911 23851,3942 23889,3974 23924,4009 23958,4045 23989,4082 24018,4122 24045,4163 24069,4206 24091,4251 24111,4297 24129,4345 24144,4395 24157,4446 24177,4554 23243,4554 23229,4520 23214,4487 23196,4457 23177,4429 23157,4403 23135,4380 23111,4358 23086,4339 23059,4322 23030,4308 22999,4296 22967,4286 22933,4278 22897,4272 22860,4269 22821,4268 22765,4270 22711,4276 22661,4286 22614,4301 22570,4319 22549,4330 22529,4342 22509,4355 22491,4369 22473,4384 22456,4400 22440,4416 22425,4434 22411,4452 22398,4472 22386,4491 22375,4512 22366,4534 22357,4556 22349,4579 22342,4603 22332,4653 22326,4706 22324,4763 22326,4817 22331,4869 22341,4919 22348,4942 22355,4965 22364,4987 22373,5008 22384,5028 22396,5048 22408,5067 22422,5086 22436,5103 22452,5120 22469,5136 22486,5151 22504,5165 22522,5178 22542,5190 22562,5201 22583,5210 22604,5219 22649,5234 22697,5244 22747,5251 22801,5253 22845,5251 22888,5247 22929,5239 22969,5228 23006,5214 23042,5198 23076,5178 23108,5155 23138,5130 23165,5102 23189,5073 23209,5041 23227,5007 23242,4971 23254,4932 23264,4892 24194,4892 Z"/></g><g/></g></g></g></svg>