<?xml version="1.0" encoding="UTF-8"?>
<!DOCTYPE svg PUBLIC "-//W3C//DTD SVG 1.1//EN" "http://www.w3.org/Graphics/SVG/1.1/DTD/svg11.dtd"><svg version="1.1" viewBox="0 0 25400 8890" preserveAspectRatio="xMidYMid" fill-rule="evenodd" xmlns="http://www.w3.org/2000/svg" xmlns:xlink="http://www.w3.org/1999/xlink"><g visibility="visible" id="Default"><desc>Master slide</desc></g><g visibility="visible" id="page1"><desc>Slide</desc><g><desc>Drawing</desc><g><g style="stroke:none;fill:rgb(148,189,94)"><path d="M 4335,7294 L 4040,7279 3753,7235 3477,7164 3212,7067 2959,6946 2721,6801 2499,6635 2294,6449 2108,6244 1942,6022 1797,5784 1676,5531 1579,5266 1508,4990 1464,4703 1449,4408 1453,4253 1480,4502 1531,4742 1604,4974 1697,5196 1810,5407 1941,5606 2090,5791 2255,5961 2435,6116 2628,6253 2835,6373 3053,6474 3282,6554 3519,6613 3765,6649 4018,6661 4281,6648 4536,6609 4782,6545 5018,6459 5243,6351 5455,6222 5653,6074 5835,5908 6001,5726 6149,5528 6278,5316 6386,5091 6472,4855 6536,4609 6575,4354 6588,4091 6576,3838 6540,3592 6481,3355 6401,3126 6300,2908 6180,2701 6043,2508 5888,2328 5718,2163 5533,2014 5334,1883 5123,1770 4901,1677 4669,1604 4429,1553 4180,1526 4335,1522 4630,1537 4917,1581 5193,1652 5458,1749 5711,1870 5949,2015 6171,2181 6376,2367 6562,2572 6728,2794 6873,3032 6994,3285 7091,3550 7162,3826 7206,4113 7221,4408 7206,4703 7162,4990 7091,5266 6994,5531 6873,5784 6728,6022 6562,6244 6376,6449 6171,6635 5949,6801 5711,6946 5458,7067 5193,7164 4917,7235 4630,7279 4335,7294 Z"/></g><g/></g></g><g><desc>Drawing</desc><g><g style="stroke:none;fill:rgb(148,189,94)"><path d="M 5529,4416 L 5527,4355 5523,4293 5515,4232 5504,4172 5490,4112 5473,4053 5453,3994 5431,3937 5405,3881 5376,3827 5345,3774 5311,3722 5275,3673 5236,3625 5195,3580 5151,3536 5106,3495 5058,3456 5009,3420 4957,3386 4904,3355 4850,3326 4794,3300 4737,3278 4678,3258 4619,3241 4559,3227 4499,3216 4438,3208 4376,3204 4315,3202 4315,3202 4254,3204 4192,3208 4131,3216 4071,3227 4011,3241 3952,3258 3893,3278 3836,3300 3780,3326 3726,3355 3673,3386 3621,3420 3572,3456 3524,3495 3479,3536 3435,3580 3394,3625 3355,3673 3319,3722 3285,3774 3254,3827 3225,3881 3199,3937 3177,3994 3157,4053 3140,4112 3126,4172 3115,4232 3107,4293 3103,4355 3101,4416 3101,4416 3103,4477 3107,4539 3115,4600 3126,4660 3140,4720 3157,4779 3177,4838 3199,4895 3225,4951 3254,5005 3285,5058 3319,5110 3355,5159 3394,5207 3435,5252 3479,5296 3524,5337 3572,5376 3621,5412 3673,5446 3726,5477 3780,5506 3836,5532 3893,5554 3952,5574 4011,5591 4071,5605 4131,5616 4192,5624 4254,5628 4315,5630 4315,5630 4376,5628 4438,5624 4499,5616 4559,5605 4619,5591 4678,5574 4737,5554 4794,5532 4850,5506 4904,5477 4957,5446 5009,5412 5058,5376 5106,5337 5151,5296 5195,5252 5236,5207 5275,5159 5311,5110 5345,5058 5376,5005 5405,4951 5431,4895 5453,4838 5473,4779 5490,4720 5504,4660 5515,4600 5523,4539 5527,4477 5529,4416 Z"/></g><g/></g></g><g><desc>Drawing</desc><g><g style="stroke:none;fill:rgb(255,255,255)"><path d="M 5052,3023 L 6689,3023 5186,6190 5084,6190 5086,6195 3451,6195 1948,3028 3585,3028 4317,4573 5052,3023 Z"/></g><g style="stroke:none;fill:rgb(115,156,62)"><path d="M 5052,2922 L 6689,2922 6689,3023 6689,3125 5052,3125 5052,3023 5052,2922 Z"/><path d="M 6689,3023 L 6689,2922 6707,2923 6724,2928 6740,2935 6754,2945 6767,2958 6777,2972 6784,2988 6789,3005 6791,3023 6789,3041 6784,3058 6781,3067 6689,3023 Z"/><path d="M 6781,3067 L 5278,6234 5186,6190 5094,6146 6597,2979 6689,3023 6781,3067 Z"/><path d="M 5186,6190 L 5278,6234 5269,6249 5257,6262 5244,6274 5228,6282 5212,6288 5194,6291 5186,6292 5186,6190 Z"/><path d="M 5186,6292 L 5084,6292 5084,6190 5084,6089 5186,6089 5186,6190 5186,6292 Z"/><path d="M 5084,6190 L 4990,6228 4985,6211 4983,6193 4984,6176 4988,6158 4995,6142 5004,6127 5016,6114 5031,6104 5046,6096 5063,6091 5081,6089 5084,6089 5084,6190 Z"/><path d="M 5178,6152 L 5180,6157 5086,6195 4992,6233 4990,6228 5084,6190 5178,6152 Z"/><path d="M 5086,6195 L 5180,6157 5185,6174 5187,6192 5186,6209 5182,6227 5175,6243 5166,6258 5154,6271 5139,6281 5124,6289 5107,6294 5089,6296 5086,6297 5086,6195 Z"/><path d="M 5086,6297 L 3451,6297 3451,6195 3451,6094 5086,6094 5086,6195 5086,6297 Z"/><path d="M 3451,6195 L 3451,6297 3433,6295 3416,6290 3400,6283 3386,6273 3373,6260 3363,6246 3359,6239 3451,6195 Z"/><path d="M 3359,6239 L 1856,3072 1948,3028 2040,2984 3543,6151 3451,6195 3359,6239 Z"/><path d="M 1948,3028 L 1856,3072 1850,3055 1847,3038 1847,3020 1850,3002 1856,2986 1864,2970 1876,2957 1889,2945 1904,2936 1921,2930 1938,2927 1948,2927 1948,3028 Z"/><path d="M 1948,2927 L 3585,2927 3585,3028 3585,3130 1948,3130 1948,3028 1948,2927 Z"/><path d="M 3585,3028 L 3585,2927 3603,2928 3620,2933 3636,2940 3650,2950 3663,2963 3673,2977 3677,2985 3585,3028 Z"/><path d="M 3677,2985 L 4409,4530 4317,4573 4225,4616 3493,3071 3585,3028 3677,2985 Z"/><path d="M 4317,4573 L 4409,4616 4400,4632 4388,4645 4375,4657 4359,4665 4343,4671 4325,4674 4308,4674 4290,4671 4274,4665 4258,4656 4245,4644 4233,4631 4225,4616 4317,4573 Z"/><path d="M 4225,4530 L 4960,2980 5052,3023 5144,3066 4409,4616 4317,4573 4225,4530 Z"/><path d="M 5052,3023 L 4960,2980 4969,2964 4981,2951 4994,2939 5010,2931 5026,2925 5044,2922 5052,2922 5052,3023 Z"/></g><g/></g></g><g><desc>Drawing</desc><g><g style="stroke:none;fill:rgb(0,0,0)"><path d="M 8514,5806 L 7604,3726 8608,3726 8997,4980 9392,3726 10383,3726 9475,5806 8514,5806 Z"/></g><g/></g></g><g><desc>Drawing</desc><g><g style="stroke:none;fill:rgb(0,0,0)"><path d="M 10601,5806 L 10601,3726 11489,3726 11489,5806 10601,5806 Z M 10601,3554 L 10601,3027 11489,3027 11489,3554 10601,3554 Z"/></g><g/></g></g><g><desc>Drawing</desc><g><g style="stroke:none;fill:rgb(0,0,0)"><path d="M 12637,4537 L 13670,4537 13664,4495 13660,4475 13654,4455 13648,4436 13641,4418 13633,4401 13625,4384 13615,4367 13605,4351 13594,4336 13581,4322 13568,4308 13555,4294 13540,4281 13524,4269 13491,4247 13455,4228 13416,4212 13375,4199 13331,4188 13284,4181 13235,4176 13183,4175 13126,4176 13073,4181 13022,4188 12974,4198 12929,4211 12886,4227 12847,4245 12810,4267 12777,4291 12762,4305 12747,4319 12733,4333 12720,4348 12708,4364 12697,4381 12687,4398 12677,4416 12668,4435 12660,4454 12647,4494 12637,4537 Z M 14549,5172 L 14535,5214 14520,5255 14502,5295 14483,5334 14461,5371 14438,5408 14412,5442 14385,5476 14355,5508 14323,5539 14254,5597 14176,5649 14091,5697 13997,5739 13896,5775 13788,5806 13672,5832 13549,5851 13418,5865 13280,5874 13134,5877 12973,5872 12822,5859 12679,5836 12547,5804 12423,5763 12309,5713 12256,5685 12204,5654 12156,5621 12109,5586 12065,5549 12024,5510 11986,5469 11951,5426 11918,5381 11888,5335 11861,5286 11837,5236 11816,5184 11798,5130 11782,5074 11770,5016 11760,4957 11753,4895 11747,4766 11753,4637 11760,4575 11770,4515 11782,4457 11798,4401 11816,4347 11837,4295 11861,4244 11888,4196 11918,4149 11951,4105 11986,4062 12024,4021 12065,3982 12109,3945 12156,3910 12204,3877 12309,3818 12423,3768 12547,3727 12679,3695 12822,3672 12973,3659 13134,3654 13305,3659 13466,3675 13615,3700 13754,3736 13882,3782 13942,3809 13999,3839 14054,3871 14106,3905 14155,3942 14202,3982 14246,4024 14287,4069 14325,4115 14361,4165 14393,4217 14423,4271 14450,4327 14474,4386 14496,4448 14514,4512 14530,4578 14542,4646 14559,4791 14565,4945 14565,4981 12681,4981 12681,5002 12683,5022 12686,5041 12689,5060 12694,5079 12700,5096 12706,5114 12714,5130 12723,5146 12733,5162 12744,5177 12756,5191 12768,5205 12782,5218 12798,5230 12814,5242 12848,5263 12887,5282 12928,5298 12973,5311 13021,5321 13073,5328 13128,5333 13186,5334 13225,5333 13262,5331 13297,5328 13331,5324 13363,5318 13393,5311 13422,5302 13449,5292 13475,5281 13498,5269 13520,5255 13540,5241 13558,5225 13574,5209 13589,5191 13595,5181 13601,5172 14549,5172 Z"/></g><g/></g></g><g><desc>Drawing</desc><g><g style="stroke:none;fill:rgb(0,0,0)"><path d="M 15153,5806 L 14537,3726 15417,3726 15709,5063 16146,3726 16754,3726 17183,5008 17498,3726 18381,3726 17751,5806 16819,5806 16443,4672 16065,5806 15153,5806 Z"/></g><g/></g></g><g><desc>Drawing</desc><g><g style="stroke:none;fill:rgb(0,0,0)"><path d="M 19474,5806 L 18564,3726 19568,3726 19957,4980 20352,3726 21343,3726 20435,5806 19474,5806 Z"/></g><g/></g></g><g><desc>Drawing</desc><g><g style="stroke:none;fill:rgb(0,0,0)"><path d="M 24194,4892 L 24178,5011 24166,5068 24152,5122 24135,5175 24116,5226 24095,5275 24071,5322 24045,5367 24017,5411 23986,5452 23953,5491 23918,5529 23880,5564 23840,5598 23797,5630 23752,5660 23705,5688 23604,5738 23493,5780 23373,5815 23244,5842 23105,5861 22958,5873 22801,5877 22638,5872 22486,5859 22342,5836 22208,5804 22084,5763 21969,5713 21915,5685 21864,5654 21815,5621 21768,5586 21724,5549 21682,5510 21644,5469 21608,5426 21575,5382 21545,5335 21518,5287 21494,5237 21473,5184 21454,5130 21439,5075 21426,5017 21416,4957 21409,4896 21403,4767 21409,4639 21416,4577 21426,4518 21439,4460 21454,4404 21473,4350 21494,4298 21518,4248 21545,4199 21575,4153 21608,4108 21644,4065 21682,4024 21724,3984 21768,3947 21815,3911 21864,3878 21969,3819 22084,3769 22208,3728 22342,3696 22486,3673 22638,3660 22801,3655 22952,3659 23094,3669 23228,3687 23353,3712 23470,3744 23578,3783 23678,3829 23769,3882 23811,3911 23851,3942 23889,3974 23924,4009 23958,4045 23989,4082 24018,4122 24045,4163 24069,4206 24091,4251 24111,4297 24129,4345 24144,4395 24157,4446 24177,4554 23243,4554 23229,4520 23214,4487 23196,4457 23177,4429 23157,4403 23135,4380 23111,4358 23086,4339 23059,4322 23030,4308 22999,4296 22967,4286 22933,4278 22897,4272 22860,4269 22821,4268 22765,4270 22711,4276 22661,4286 22614,4301 22570,4319 22549,4330 22529,4342 22509,4355 22491,4369 22473,4384 22456,4400 22440,4416 22425,4434 22411,4452 22398,4472 22386,4491 22375,4512 22366,4534 22357,4556 22349,4579 22342,4603 22332,4653 22326,4706 22324,4763 22326,4817 22331,4869 22341,4919 22348,4942 22355,4965 22364,4987 22373,5008 22384,5028 22396,5048 22408,5067 22422,5086 22436,5103 22452,5120 22469,5136 22486,5151 22504,5165 22522,5178 22542,5190 22562,5201 22583,5210 22604,5219 22649,5234 22697,5244 22747,5251 22801,5253 22845,5251 22888,5247 22929,5239 22969,5228 23006,5214 23042,5198 23076,5178 23108,5155 23138,5130 23165,5102 23189,5073 23209,5041 23227,5007 23242,4971 23254,4932 23264,4892 24194,4892 Z"/></g><g/></g></g></g></svg>